<?xml version="1.0" encoding="utf-8"?>
<svg xmlns="http://www.w3.org/2000/svg" style="margin: auto; background: rgb(255, 255, 255); display: block; shape-rendering: auto;" width="280" height="250" preserveAspectRatio="xMidYMid">
<style type="text/css">
  text {
    text-anchor: middle; font-size: 37px; opacity: 0;
  }
</style>
<g style="transform-origin: 140px 125px; transform: scale(0.362745);">
<g transform="translate(140,125)">
  <g transform="translate(0,0)"><g class="path" style="transform: matrix(1, 0, 0, 1, 0, 0); transform-origin: -295.18px -0.922909px; animation: 1s linear -0.61875s infinite normal forwards running bounce-86fba17e-4de6-4fe8-88f0-59ce0f7a85b3;"><path d="M7.65-18.87L7.65-18.87L7.85-39.47L7.85-39.47Q7.85-63.65 5.51-66.81L5.51-66.81L5.51-66.81Q4.39-68.24 4.39-68.80L4.39-68.80L4.39-68.80Q4.39-69.36 5.76-70.13L5.76-70.13L5.76-70.13Q7.14-70.89 11.12-71.81L11.12-71.81L11.12-71.81Q15.10-72.73 18.16-72.73L18.16-72.73L18.16-72.73Q21.22-72.73 21.22-71.30L21.22-71.30L21.01-69.97L21.01-69.97Q19.79-58.96 19.79-48.45L19.79-48.45L19.79-48.45Q19.79-37.94 20.40-24.99L20.40-24.99L20.40-24.99Q21.01-12.04 21.01-5.92L21.01-5.92L21.01-5.92Q21.01 2.35 14.64 8.31L14.64 8.31L14.64 8.31Q8.26 14.28-0.51 14.79L-0.51 14.79L-0.51 14.79Q-2.24 14.59-2.24 13.57L-2.24 13.57L-2.24 13.57Q-2.24 12.85-1.79 12.44L-1.79 12.44L-1.79 12.44Q-1.33 12.04-0.71 11.42L-0.71 11.42L-0.71 11.42Q-0.10 10.81 1.53 8.26L1.53 8.26L1.53 8.26Q3.16 5.71 4.39 2.50L4.39 2.50L4.39 2.50Q5.61-0.71 6.63-6.43L6.63-6.43L6.63-6.43Q7.65-12.14 7.65-18.87" fill="#51cacc" stroke="none" stroke-width="none" transform="translate(-304.6700439453125,28.047091674804687)" style="fill: rgb(81, 202, 204);"></path></g><g class="path" style="transform: matrix(1, 0, 0, 1, 0, 0); transform-origin: -258.365px 5.66209px; animation: 1s linear -0.5775s infinite normal forwards running bounce-86fba17e-4de6-4fe8-88f0-59ce0f7a85b3;"><path d="M64.36-45.39L64.36-45.39L64.36-45.39Q62.53-34.37 62.53-17.34L62.53-17.34L62.53-17.34Q62.53-4.79 63.55-0.82L63.55-0.82L63.95 0.51L63.95 0.51Q63.95 1.84 61.71 1.84L61.71 1.84L61.71 1.84Q53.86 1.84 52.73-2.55L52.73-2.55L52.73-2.55Q52.63-3.06 52.28-3.06L52.28-3.06L52.28-3.06Q51.92-3.06 51.61-2.65L51.61-2.65L51.61-2.65Q48.45 1.53 41.82 1.53L41.82 1.53L41.82 1.53Q38.15 1.53 34.17-0.31L34.17-0.31L34.17-0.31Q31.72-1.43 30.19-4.23L30.19-4.23L30.19-4.23Q28.66-7.04 28.66-11.12L28.66-11.12L30.19-33.46L30.19-33.46Q30.19-40.49 28.76-43.45L28.76-43.45L28.76-43.45Q28.25-44.57 28.25-44.88L28.25-44.88L28.25-44.88Q28.25-45.49 28.76-45.70L28.76-45.70L28.76-45.70Q30.40-46.21 32.95-46.21L32.95-46.21L32.95-46.21Q42.84-46.21 42.84-38.05L42.84-38.05L42.84-38.05Q42.84-35.50 40.75-26.42L40.75-26.42L40.75-26.42Q38.66-17.34 38.66-13.52L38.66-13.52L38.66-13.52Q38.66-9.69 40.34-7.65L40.34-7.65L40.34-7.65Q42.02-5.61 45.03-5.61L45.03-5.61L45.03-5.61Q48.04-5.61 49.78-7.75L49.78-7.75L49.78-7.75Q51.51-9.89 51.82-12.04L51.82-12.04L52.12-14.18L52.12-14.18Q52.53-17.75 52.53-26.72L52.53-26.72L52.53-26.72Q52.53-35.70 51.97-38.10L51.97-38.10L51.97-38.10Q51.41-40.49 51.41-41.11L51.41-41.11L51.41-41.11Q51.41-43.66 55.49-45.14L55.49-45.14L55.49-45.14Q59.57-46.61 62.83-46.61L62.83-46.61L62.83-46.61Q64.36-46.61 64.36-45.39" fill="#51cacc" stroke="none" stroke-width="none" transform="translate(-304.6700439453125,28.047091674804687)" style="fill: rgb(157, 248, 113);"></path></g><g class="path" style="transform: matrix(1, 0, 0, 1, 0, 0); transform-origin: -205.625px 5.81209px; animation: 1s linear -0.53625s infinite normal forwards running bounce-86fba17e-4de6-4fe8-88f0-59ce0f7a85b3;"><path d="M92.31 0.61L92.31 0.61L92.31 0.61Q93.74-6.53 93.74-19.43L93.74-19.43L93.74-19.43Q93.74-32.33 93.64-34.68L93.64-34.68L93.64-34.68Q93.53-37.03 92.21-38.45L92.21-38.45L92.21-38.45Q90.88-39.88 89.91-40.09L89.91-40.09L89.91-40.09Q88.94-40.29 87.21-40.29L87.21-40.29L87.21-40.29Q85.48-40.29 83.84-38.71L83.84-38.71L83.84-38.71Q82.21-37.13 81.91-35.50L81.91-35.50L81.50-33.86L81.50-33.86Q81.19-30.80 81.19-20.30L81.19-20.30L81.19-20.30Q81.19-9.79 81.65-7.09L81.65-7.09L81.65-7.09Q82.11-4.39 82.11-3.47L82.11-3.47L82.11-3.47Q82.11-2.55 81.29-1.63L81.29-1.63L81.29-1.63Q77.83 2.04 71.50 2.04L71.50 2.04L71.50 2.04Q69.26 2.04 69.26 0.71L69.26 0.71L69.26 0.71Q71.30-11.53 71.30-30.50L71.30-30.50L71.30-30.50Q71.30-37.54 70.99-39.98L70.99-39.98L70.58-43.25L70.58-43.25Q70.48-44.37 70.18-45.70L70.18-45.70L70.18-45.70Q70.18-46.92 73.34-46.92L73.34-46.92L73.34-46.92Q78.03-46.92 79.56-43.45L79.56-43.45L79.56-43.45Q79.66-43.04 79.97-43.04L79.97-43.04L79.97-43.04Q80.27-43.04 81.40-43.86L81.40-43.86L81.40-43.86Q84.76-46.51 90.47-46.51L90.47-46.51L90.47-46.51Q93.74-46.51 96.90-45.29L96.90-45.29L96.90-45.29Q100.06-44.06 101.29-42.02L101.29-42.02L101.29-42.02Q101.39-41.82 101.59-41.82L101.59-41.82L101.59-41.82Q101.80-41.82 102.20-42.23L102.20-42.23L102.20-42.23Q106.49-46.51 113.32-46.51L113.32-46.51L113.32-46.51Q122.40-46.51 125.77-39.98L125.77-39.98L125.77-39.98Q126.99-37.43 126.99-33.56L126.99-33.56L126.99-33.56Q126.99-29.68 126.38-22.54L126.38-22.54L126.38-22.54Q125.77-15.40 125.77-11.63L125.77-11.63L125.77-11.63Q125.77-7.85 126.53-4.79L126.53-4.79L126.53-4.79Q127.30-1.73 128.06-0.41L128.06-0.41L128.06-0.41Q128.83 0.92 128.83 1.12L128.83 1.12L128.83 1.12Q128.83 2.45 125.97 2.45L125.97 2.45L125.97 2.45Q118.93 2.45 116.18-0.41L116.18-0.41L116.18-0.41Q113.42-3.26 113.42-7.91L113.42-7.91L113.42-7.91Q113.42-12.55 115.31-20.45L115.31-20.45L115.31-20.45Q117.20-28.36 117.20-32.33L117.20-32.33L117.20-32.33Q117.20-40.39 110.67-40.39L110.67-40.39L110.67-40.39Q107.92-40.39 106.28-38.76L106.28-38.76L106.28-38.76Q104.65-37.13 104.35-35.50L104.35-35.50L104.14-33.86L104.14-33.86Q103.73-29.17 103.73-22.54L103.73-22.54L103.73-22.54Q103.73-15.91 103.94-12.19L103.94-12.19L103.94-12.19Q104.14-8.47 104.35-6.38L104.35-6.38L104.35-6.38Q104.55-4.28 104.55-3.88L104.55-3.88L104.55-3.88Q104.55-1.02 100.98 0.51L100.98 0.51L100.98 0.51Q97.41 2.04 94.04 2.04L94.04 2.04L94.04 2.04Q92.31 2.04 92.31 0.61" fill="#51cacc" stroke="none" stroke-width="none" transform="translate(-304.6700439453125,28.047091674804687)" style="fill: rgb(224, 255, 119);"></path></g><g class="path" style="transform: matrix(1, 0, 0, 1, 0, 0); transform-origin: -154.835px 5.66209px; animation: 1s linear -0.495s infinite normal forwards running bounce-86fba17e-4de6-4fe8-88f0-59ce0f7a85b3;"><path d="M166.26-30.60L166.26-30.60L166.06-17.54L166.06-17.54Q166.06-3.98 169.01-1.22L169.01-1.22L169.01-1.22Q169.42-0.82 169.42-0.31L169.42-0.31L169.42-0.31Q169.42 1.22 162.84 1.22L162.84 1.22L162.84 1.22Q156.26 1.22 155.86-2.65L155.86-2.65L155.86-2.65Q155.75-3.57 155.75-6.43L155.75-6.43L156.16-22.75L156.16-22.75Q156.16-23.46 155.35-23.46L155.35-23.46L155.35-23.46Q150.45-23.46 146.17-20.71L146.17-20.71L146.17-20.71Q141.88-17.95 141.88-13.67L141.88-13.67L141.88-13.67Q141.88-11.42 143.11-9.89L143.11-9.89L143.11-9.89Q144.33-8.36 146.12-8.36L146.12-8.36L146.12-8.36Q147.90-8.36 149.07-9.08L149.07-9.08L149.07-9.08Q150.25-9.79 150.45-9.89L150.45-9.89L150.45-9.89Q152.18-9.69 152.18-6.27L152.18-6.27L152.18-6.27Q152.18-2.86 149.02-0.77L149.02-0.77L149.02-0.77Q145.86 1.33 142.39 1.33L142.39 1.33L142.39 1.33Q138.92 1.33 136.43 0.10L136.43 0.10L136.43 0.10Q133.93-1.12 132.80-2.65L132.80-2.65L132.80-2.65Q131.68-4.18 130.97-6.12L130.97-6.12L130.97-6.12Q130.25-8.47 130.25-10.20L130.25-10.20L130.25-10.20Q130.25-17.34 134.74-21.62L134.74-21.62L134.74-21.62Q139.23-25.91 146.27-27.74L146.27-27.74L146.27-27.74Q155.55-29.58 155.96-31.11L155.96-31.11L155.96-31.11Q156.26-32.23 156.26-34.88L156.26-34.88L156.26-34.88Q156.26-40.29 150.76-40.29L150.76-40.29L150.76-40.29Q148.41-40.29 146.57-38.81L146.57-38.81L146.57-38.81Q144.74-37.33 144.74-35.09L144.74-35.09L145.35-32.64L145.35-32.64Q145.15-30.91 141.68-30.60L141.68-30.60L140.56-30.50L140.56-30.50Q137.50-30.50 135.71-32.03L135.71-32.03L135.71-32.03Q133.93-33.56 133.93-36.11L133.93-36.11L133.93-36.11Q133.93-37.74 135.00-39.73L135.00-39.73L135.00-39.73Q136.07-41.72 137.70-42.94L137.70-42.94L137.70-42.94Q139.33-44.17 142.75-45.14L142.75-45.14L142.75-45.14Q146.17-46.10 149.33-46.10L149.33-46.10L149.33-46.10Q152.49-46.10 154.22-45.90L154.22-45.90L154.22-45.90Q155.96-45.70 158.97-44.93L158.97-44.93L158.97-44.93Q161.98-44.17 163.97-42.02L163.97-42.02L163.97-42.02Q165.95-39.88 166.11-37.48L166.11-37.48L166.11-37.48Q166.26-35.09 166.26-30.60" fill="#51cacc" stroke="none" stroke-width="none" transform="translate(-304.6700439453125,28.047091674804687)" style="fill: rgb(222, 157, 214);"></path></g><g class="path" style="transform: matrix(1, 0, 0, 1, 0, 0); transform-origin: -97.255px 5.75709px; animation: 1s linear -0.45375s infinite normal forwards running bounce-86fba17e-4de6-4fe8-88f0-59ce0f7a85b3;"><path d="M224.20-11.73L224.20-11.73L224.20-11.73Q224.20-5.92 219.56-2.09L219.56-2.09L219.56-2.09Q214.91 1.73 208.49 1.73L208.49 1.73L208.49 1.73Q199.10 1.73 194.72-3.93L194.72-3.93L194.72-3.93Q190.33-9.59 190.33-19.28L190.33-19.28L190.33-19.28Q190.33-29.58 194.92-37.54L194.92-37.54L194.92-37.54Q197.17-41.62 201.35-43.96L201.35-43.96L201.35-43.96Q205.53-46.31 211.14-46.31L211.14-46.31L211.14-46.31Q219.61-46.31 223.07-40.60L223.07-40.60L223.07-40.60Q224.50-38.25 224.50-35.09L224.50-35.09L224.50-35.09Q224.50-30.19 220.42-27.74L220.42-27.74L220.42-27.74Q218.79-26.83 217.41-26.83L217.41-26.83L217.41-26.83Q216.04-26.83 215.17-26.98L215.17-26.98L215.17-26.98Q214.30-27.13 212.87-28.36L212.87-28.36L212.87-28.36Q211.45-29.58 211.45-31.72L211.45-31.72L211.45-31.72Q211.55-32.84 213.18-33.56L213.18-33.56L213.18-33.56Q214.71-34.48 214.71-36.82L214.71-36.82L214.71-36.82Q214.71-40.80 209.81-40.80L209.81-40.80L209.81-40.80Q208.59-40.80 206.91-39.73L206.91-39.73L206.91-39.73Q205.22-38.66 204.10-36.98L204.10-36.98L204.10-36.98Q202.98-35.29 202.01-31.67L202.01-31.67L202.01-31.67Q201.04-28.05 201.04-24.74L201.04-24.74L201.04-24.74Q201.04-21.42 201.30-19.74L201.30-19.74L201.30-19.74Q201.55-18.05 202.42-15.15L202.42-15.15L202.42-15.15Q203.29-12.24 205.68-10.40L205.68-10.40L205.68-10.40Q208.08-8.57 211.65-8.57L211.65-8.57L211.65-8.57Q215.93-8.57 219.20-12.14L219.20-12.14L219.20-12.14Q220.52-13.57 221.34-15.61L221.34-15.61L221.34-15.61Q221.75-16.42 222.36-16.42L222.36-16.42L222.36-16.42Q223.28-16.42 223.74-14.74L223.74-14.74L223.74-14.74Q224.20-13.06 224.20-11.73" fill="#51cacc" stroke="none" stroke-width="none" transform="translate(-304.6700439453125,28.047091674804687)" style="fill: rgb(255, 112, 142);"></path></g><g class="path" style="transform: matrix(1, 0, 0, 1, 0, 0); transform-origin: -66.4px -30.7579px; animation: 1s linear -0.4125s infinite normal forwards running bounce-86fba17e-4de6-4fe8-88f0-59ce0f7a85b3;"><path d="M240.11-54.57L240.11-54.57L237.66-54.67L237.66-54.67Q234.91-54.67 234.09-53.35L234.09-53.35L234.09-53.35Q233.89-53.04 233.58-53.04L233.58-53.04L233.58-53.04Q232.25-53.04 232.25-57.58L232.25-57.58L232.25-57.58Q232.25-62.12 233.63-63.34L233.63-63.34L233.63-63.34Q235.01-64.57 238.43-64.57L238.43-64.57L238.43-64.57Q241.84-64.57 243.07-63.39L243.07-63.39L243.07-63.39Q244.29-62.22 244.29-59.47L244.29-59.47L244.29-59.47Q244.29-56.71 243.37-55.64L243.37-55.64L243.37-55.64Q242.45-54.57 240.11-54.57" fill="#51cacc" stroke="none" stroke-width="none" transform="translate(-304.6700439453125,28.047091674804687)" style="fill: rgb(81, 202, 204);"></path></g><g class="path" style="transform: matrix(1, 0, 0, 1, 0, 0); transform-origin: -67.725px 6.16709px; animation: 1s linear -0.37125s infinite normal forwards running bounce-86fba17e-4de6-4fe8-88f0-59ce0f7a85b3;"><path d="M231.95-3.06L231.95-3.06L233.07-26.83L233.07-26.83Q233.07-35.29 231.13-38.35L231.13-38.35L231.13-38.35Q230.52-39.37 229.70-39.88L229.70-39.88L229.70-39.88Q229.09-40.09 229.09-40.70L229.09-40.70L229.09-40.70Q229.09-42.53 234.29-44.27L234.29-44.27L234.29-44.27Q239.50-46.00 241.89-46.00L241.89-46.00L241.89-46.00Q244.29-46.00 244.39-44.78L244.39-44.78L244.39-44.78Q244.39-42.74 243.83-33.20L243.83-33.20L243.83-33.20Q243.27-23.66 243.27-13.16L243.27-13.16L243.27-13.16Q243.27-2.65 244.49-0.10L244.49-0.10L244.49-0.10Q244.80 0.41 244.80 0.92L244.80 0.92L244.80 0.92Q244.80 2.24 240.92 2.24L240.92 2.24L240.92 2.24Q237.05 2.24 232.97 0.20L232.97 0.20L232.97 0.20Q231.95-0.31 231.95-3.06" fill="#51cacc" stroke="none" stroke-width="none" transform="translate(-304.6700439453125,28.047091674804687)" style="fill: rgb(157, 248, 113);"></path></g><g class="path" style="transform: matrix(1, 0, 0, 1, 0, 0); transform-origin: -43.755px -0.462908px; animation: 1s linear -0.33s infinite normal forwards running bounce-86fba17e-4de6-4fe8-88f0-59ce0f7a85b3;"><path d="M249.49-39.78L249.49-39.78L249.80-43.86L249.80-43.86Q249.90-44.78 251.23-44.78L251.23-44.78L254.80-44.78L254.39-52.94L254.39-53.35L254.39-53.35Q254.39-55.69 257.96-57.83L257.96-57.83L257.96-57.83Q261.53-59.98 264.49-59.98L264.49-59.98L264.49-59.98Q265.40-59.98 265.40-59.16L265.40-59.16L265.40-59.06L265.40-59.06Q265.00-56.30 264.59-44.88L264.59-44.88L264.59-44.88Q269.08-44.88 270.30-45.08L270.30-45.08L270.30-45.08Q271.52-45.29 271.63-45.29L271.63-45.29L271.63-45.29Q272.34-45.29 272.34-44.06L272.34-44.06L272.34-44.06Q272.34-42.84 271.22-40.95L271.22-40.95L271.22-40.95Q270.10-39.07 268.77-38.96L268.77-38.96L264.49-38.96L264.49-38.96Q264.38-35.50 264.38-27.29L264.38-27.29L264.38-27.29Q264.38-19.07 264.54-13.77L264.54-13.77L264.54-13.77Q264.69-8.47 264.89-5.76L264.89-5.76L264.89-5.76Q265.10-3.06 265.35-1.43L265.35-1.43L265.35-1.43Q265.61 0.20 265.76 0.92L265.76 0.92L265.76 0.92Q265.91 1.63 265.91 1.84L265.91 1.84L265.91 1.84Q265.91 2.86 264.59 2.96L264.59 2.96L264.59 2.96Q260.61 2.96 256.68 1.84L256.68 1.84L256.68 1.84Q252.76 0.71 252.76-2.04L252.76-2.04L252.76-2.04Q254.90-19.18 254.90-38.86L254.90-38.86L254.90-38.86Q252.14-38.86 250.72-38.66L250.72-38.66L250.61-38.66L250.61-38.66Q249.70-38.66 249.49-39.78" fill="#51cacc" stroke="none" stroke-width="none" transform="translate(-304.6700439453125,28.047091674804687)" style="fill: rgb(224, 255, 119);"></path></g><g class="path" style="transform: matrix(1, 0, 0, 1, 0, 0); transform-origin: -13.305px 19.3771px; animation: 1s linear -0.28875s infinite normal forwards running bounce-86fba17e-4de6-4fe8-88f0-59ce0f7a85b3;"><path d="M292.94 28.25L292.94 28.25L292.94 28.25Q292.94 29.48 291.72 29.48L291.72 29.48L291.62 29.48L291.62 29.48Q288.25 29.48 284.02 27.13L284.02 27.13L284.02 27.13Q279.79 24.79 279.79 21.73L279.79 21.73L279.79 21.73Q279.79 18.67 283.66 11.07L283.66 11.07L283.66 11.07Q287.54 3.47 287.54 0.92L287.54 0.92L287.54 0.92Q287.54-1.84 284.89-8.98L284.89-8.98L284.89-8.98Q281.52-18.26 279.53-24.07L279.53-24.07L279.53-24.07Q277.54-29.89 275.25-34.32L275.25-34.32L275.25-34.32Q272.95-38.76 271.93-39.58L271.93-39.58L270.91-40.29L270.91-40.29Q269.79-40.90 269.79-41.62L269.79-41.62L269.79-41.62Q269.79-43.04 274.23-44.52L274.23-44.52L274.23-44.52Q278.66-46.00 282.03-46.00L282.03-46.00L282.03-46.00Q283.56-46.00 284.58-43.55L284.58-43.55L284.58-43.55Q286.42-38.76 288.56-30.29L288.56-30.29L288.56-30.29Q293.76-12.95 295.09-12.95L295.09-12.95L295.09-12.95Q296.00-12.95 298.81-20.09L298.81-20.09L298.81-20.09Q301.61-27.23 301.61-31.62L301.61-31.62L301.61-31.62Q301.61-39.27 297.13-40.60L297.13-40.60L297.13-40.60Q296.11-40.80 296.11-41.62L296.11-41.62L296.11-41.62Q296.11-43.45 300.90-45.14L300.90-45.14L300.90-45.14Q305.69-46.82 309.57-46.82L309.57-46.82L309.57-46.82Q312.94-46.82 312.94-42.43L312.94-42.43L312.94-42.43Q312.94-39.07 311.51-34.58L311.51-34.58L311.51-34.58Q310.08-30.09 308.86-27.49L308.86-27.49L308.86-27.49Q307.63-24.89 302.79-15.45L302.79-15.45L302.79-15.45Q297.94-6.02 294.78 1.12L294.78 1.12L294.78 1.12Q291.31 9.69 291.31 18.56L291.31 18.56L291.31 18.56Q291.31 23.26 292.13 25.60L292.13 25.60L292.13 25.60Q292.94 27.95 292.94 28.25" fill="#51cacc" stroke="none" stroke-width="none" transform="translate(-304.6700439453125,28.047091674804687)" style="fill: rgb(222, 157, 214);"></path></g><g class="path" style="transform: matrix(1, 0, 0, 1, 0, 0); transform-origin: 44.0699px 5.65709px; animation: 1s linear -0.2475s infinite normal forwards running bounce-86fba17e-4de6-4fe8-88f0-59ce0f7a85b3;"><path d="M364.55-35.09L364.04-27.34L364.45-23.77L364.45-23.77Q364.45-21.83 360.77-21.83L360.77-21.83L360.77-21.83Q353.33-21.83 353.33-27.44L353.33-27.44L353.33-27.44Q353.33-28.76 354.04-31.11L354.04-31.11L354.04-31.11Q354.76-33.46 354.76-35.19L354.76-35.19L354.76-35.19Q354.76-36.92 353.74-38.20L353.74-38.20L353.74-38.20Q352.72-39.47 350.78-39.47L350.78-39.47L350.78-39.47Q348.84-39.47 347.46-38.10L347.46-38.10L347.46-38.10Q346.09-36.72 345.78-35.29L345.78-35.29L345.37-33.86L345.37-33.86Q344.76-30.70 344.76-23.31L344.76-23.31L344.76-23.31Q344.76-15.91 344.96-11.68L344.96-11.68L344.96-11.68Q345.17-7.45 345.37-5.87L345.37-5.87L345.37-5.87Q345.58-4.28 345.58-3.98L345.58-3.98L345.58-3.98Q345.58-1.43 342.41 0.15L342.41 0.15L342.41 0.15Q339.25 1.73 336.09 1.73L336.09 1.73L336.09 1.73Q332.93 1.73 332.93 0.41L332.93 0.41L333.44-2.75L333.44-2.75Q334.87-11.63 334.87-25.91L334.87-25.91L334.87-25.91Q334.87-40.19 333.85-45.29L333.85-45.29L333.85-45.29Q333.85-46.51 335.99-46.51L335.99-46.51L335.99-46.51Q341.50-46.51 343.33-42.74L343.33-42.74L343.33-42.74Q343.43-42.33 343.69-42.33L343.69-42.33L343.69-42.33Q343.94-42.33 345.07-43.25L345.07-43.25L345.07-43.25Q348.43-46.00 353.02-46.00L353.02-46.00L353.02-46.00Q355.88-46.00 358.73-44.88L358.73-44.88L358.73-44.88Q364.55-42.53 364.55-35.09L364.55-35.09" fill="#51cacc" stroke="none" stroke-width="none" transform="translate(-304.6700439453125,28.047091674804687)" style="fill: rgb(255, 112, 142);"></path></g><g class="path" style="transform: matrix(1, 0, 0, 1, 0, 0); transform-origin: 80.4299px 5.86209px; animation: 1s linear -0.20625s infinite normal forwards running bounce-86fba17e-4de6-4fe8-88f0-59ce0f7a85b3;"><path d="M378.83-25.91L378.83-25.91L378.93-23.36L378.93-23.36Q378.93-22.75 379.75-22.75L379.75-22.75L379.75-22.75Q383.01-23.05 385.46-24.43L385.46-24.43L385.46-24.43Q387.91-25.81 389.13-27.54L389.13-27.54L389.13-27.54Q391.58-31.31 391.78-34.07L391.78-34.07L391.88-35.29L391.88-35.29Q391.88-40.80 387.50-40.80L387.50-40.80L387.50-40.80Q384.23-40.80 382.19-37.94L382.19-37.94L382.19-37.94Q378.83-33.46 378.83-25.91zM401.06-12.34L401.06-12.34L401.06-12.34Q401.06-8.47 399.48-5.56L399.48-5.56L399.48-5.56Q397.90-2.65 395.91-1.28L395.91-1.28L395.91-1.28Q393.92 0.10 391.27 0.92L391.27 0.92L391.27 0.92Q387.91 1.94 384.85 1.94L384.85 1.94L384.85 1.94Q376.28 1.94 372.20-4.49L372.20-4.49L372.20-4.49Q368.12-10.91 368.12-20.86L368.12-20.86L368.12-20.86Q368.12-30.80 373.17-38.56L373.17-38.56L373.17-38.56Q378.22-46.31 388.31-46.31L388.31-46.31L388.31-46.31Q397.49-46.31 400.76-39.88L400.76-39.88L400.76-39.88Q402.08-37.43 402.08-35.24L402.08-35.24L402.08-35.24Q402.08-33.05 401.88-31.77L401.88-31.77L401.88-31.77Q401.68-30.50 400.45-27.95L400.45-27.95L400.45-27.95Q399.23-25.40 397.19-23.36L397.19-23.36L397.19-23.36Q395.15-21.32 390.76-19.48L390.76-19.48L390.76-19.48Q386.38-17.65 380.46-17.03L380.46-17.03L380.46-17.03Q379.64-17.03 379.64-16.32L379.64-16.32L379.64-16.32Q379.64-15.40 380.31-13.62L380.31-13.62L380.31-13.62Q380.97-11.83 381.79-10.61L381.79-10.61L381.79-10.61Q384.03-7.75 388.42-7.75L388.42-7.75L388.42-7.75Q392.80-7.75 395.86-10.61L395.86-10.61L395.86-10.61Q397.49-12.14 398.51-14.38L398.51-14.38L398.51-14.38Q398.92-15.20 399.59-15.20L399.59-15.20L399.59-15.20Q400.25-15.20 400.66-14.08L400.66-14.08L400.66-14.08Q401.06-12.95 401.06-12.34" fill="#51cacc" stroke="none" stroke-width="none" transform="translate(-304.6700439453125,28.047091674804687)" style="fill: rgb(81, 202, 204);"></path></g><g class="path" style="transform: matrix(1, 0, 0, 1, 0, 0); transform-origin: 118.885px -6.48291px; animation: 1s linear -0.165s infinite normal forwards running bounce-86fba17e-4de6-4fe8-88f0-59ce0f7a85b3;"><path d="M427.69-33.05L427.69-33.05L427.69-33.05Q427.28-32.64 427.28-32.18L427.28-32.18L427.28-32.18Q427.28-31.72 429.17-31.31L429.17-31.31L429.17-31.31Q431.05-30.91 433.30-29.07L433.30-29.07L433.30-29.07Q435.54-27.23 436.66-25.09L436.66-25.09L436.66-25.09Q438.80-20.91 439.01-17.75L439.01-17.75L439.11-16.42L439.11-16.42Q439.62-4.49 443.50-0.10L443.50-0.10L443.50-0.10Q444.01 0.61 444.01 0.92L444.01 0.92L444.01 0.92Q444.01 2.04 441.15 2.04L441.15 2.04L441.15 2.04Q432.58 2.04 430.24-1.53L430.24-1.53L430.24-1.53Q429.01-2.96 429.01-10.40L429.01-10.40L429.01-12.95L429.01-12.95Q429.01-22.44 426.67-26.11L426.67-26.11L426.67-26.11Q425.44-27.85 423.66-27.85L423.66-27.85L423.66-27.85Q421.87-27.85 419.93-24.74L419.93-24.74L419.93-24.74Q418.00-21.62 418.00-19.48L418.00-19.48L418.00-19.48Q418.00-10.91 418.40-7.55L418.40-7.55L418.40-7.55Q418.81-4.18 418.81-4.08L418.81-4.08L418.81-4.08Q418.81-1.12 414.78 0.51L414.78 0.51L414.78 0.51Q410.75 2.14 407.18 2.14L407.18 2.14L407.18 2.14Q405.86 2.14 405.86 0.51L405.86 0.51L405.86 0.10L405.86 0.10Q408.31-12.44 408.31-39.47L408.31-39.47L408.31-39.47Q408.31-48.35 407.90-54.47L407.90-54.47L407.69-56.51L407.69-56.51Q407.49-59.36 406.52-61.40L406.52-61.40L406.52-61.40Q405.55-63.44 404.63-64.06L404.63-64.06L403.82-64.57L403.82-64.57Q403.10-64.97 403.10-65.48L403.10-65.48L403.10-65.48Q403.10-67.12 408.00-69.16L408.00-69.16L408.00-69.16Q412.90-71.20 416.47-71.20L416.47-71.20L416.47-71.20Q418.10-71.09 418.20-69.97L418.20-69.97L418.20-69.97Q418.71-65.89 418.71-53.19L418.71-53.19L418.71-53.19Q418.71-40.49 418.10-32.95L418.10-32.95L418.10-32.95Q418.10-31.72 418.51-31.72L418.51-31.72L418.51-31.72Q418.91-31.72 419.78-32.90L419.78-32.90L419.78-32.90Q420.65-34.07 422.84-36.62L422.84-36.62L422.84-36.62Q425.03-39.17 428.76-42.53L428.76-42.53L428.76-42.53Q432.48-45.90 434.78-45.90L434.78-45.90L434.78-45.90Q437.07-45.90 439.31-44.78L439.31-44.78L439.31-44.78Q441.56-43.66 441.56-42.64L441.56-42.64L440.44-41.92L440.44-41.92Q434.62-39.78 427.69-33.05" fill="#51cacc" stroke="none" stroke-width="none" transform="translate(-304.6700439453125,28.047091674804687)" style="fill: rgb(157, 248, 113);"></path></g><g class="path" style="transform: matrix(1, 0, 0, 1, 0, 0); transform-origin: 147.8px -6.2229px; animation: 1s linear -0.12375s infinite normal forwards running bounce-86fba17e-4de6-4fe8-88f0-59ce0f7a85b3;"><path d="M459.71-58.34L459.71-58.34L459.10-20.91L459.10-20.91Q459.10-3.37 460.22 0.10L460.22 0.10L460.22 0.10Q460.53 0.71 460.53 1.33L460.53 1.33L460.53 1.33Q460.53 2.55 457.57 2.55L457.57 2.55L457.57 2.55Q454.61 2.55 450.99 1.07L450.99 1.07L450.99 1.07Q447.37-0.41 447.37-2.75L447.37-2.75L447.37-2.75Q449.41-17.03 449.41-40.90L449.41-40.90L449.00-56.51L449.00-56.51Q448.80-59.36 447.83-61.40L447.83-61.40L447.83-61.40Q446.86-63.44 445.94-64.06L445.94-64.06L445.13-64.57L445.13-64.57Q444.41-64.97 444.41-65.48L444.41-65.48L444.41-65.48Q444.41-66.91 448.85-69.00L448.85-69.00L448.85-69.00Q453.29-71.09 457.47-71.09L457.47-71.09L457.47-71.09Q459.10-71.09 459.31-69.97L459.31-69.97L459.31-69.97Q459.71-67.32 459.71-58.34" fill="#51cacc" stroke="none" stroke-width="none" transform="translate(-304.6700439453125,28.047091674804687)" style="fill: rgb(224, 255, 119);"></path></g><g class="path" style="transform: matrix(1, 0, 0, 1, 0, 0); transform-origin: 179.625px 5.66209px; animation: 1s linear -0.0825s infinite normal forwards running bounce-86fba17e-4de6-4fe8-88f0-59ce0f7a85b3;"><path d="M500.72-30.60L500.72-30.60L500.51-17.54L500.51-17.54Q500.51-3.98 503.47-1.22L503.47-1.22L503.47-1.22Q503.88-0.82 503.88-0.31L503.88-0.31L503.88-0.31Q503.88 1.22 497.30 1.22L497.30 1.22L497.30 1.22Q490.72 1.22 490.31-2.65L490.31-2.65L490.31-2.65Q490.21-3.57 490.21-6.43L490.21-6.43L490.62-22.75L490.62-22.75Q490.62-23.46 489.80-23.46L489.80-23.46L489.80-23.46Q484.91-23.46 480.62-20.71L480.62-20.71L480.62-20.71Q476.34-17.95 476.34-13.67L476.34-13.67L476.34-13.67Q476.34-11.42 477.56-9.89L477.56-9.89L477.56-9.89Q478.79-8.36 480.57-8.36L480.57-8.36L480.57-8.36Q482.36-8.36 483.53-9.08L483.53-9.08L483.53-9.08Q484.70-9.79 484.91-9.89L484.91-9.89L484.91-9.89Q486.64-9.69 486.64-6.27L486.64-6.27L486.64-6.27Q486.64-2.86 483.48-0.77L483.48-0.77L483.48-0.77Q480.32 1.33 476.85 1.33L476.85 1.33L476.85 1.33Q473.38 1.33 470.88 0.10L470.88 0.10L470.88 0.10Q468.38-1.12 467.26-2.65L467.26-2.65L467.26-2.65Q466.14-4.18 465.43-6.12L465.43-6.12L465.43-6.12Q464.71-8.47 464.71-10.20L464.71-10.20L464.71-10.20Q464.71-17.34 469.20-21.62L469.20-21.62L469.20-21.62Q473.69-25.91 480.73-27.74L480.73-27.74L480.73-27.74Q490.01-29.58 490.42-31.11L490.42-31.11L490.42-31.11Q490.72-32.23 490.72-34.88L490.72-34.88L490.72-34.88Q490.72-40.29 485.21-40.29L485.21-40.29L485.21-40.29Q482.87-40.29 481.03-38.81L481.03-38.81L481.03-38.81Q479.20-37.33 479.20-35.09L479.20-35.09L479.81-32.64L479.81-32.64Q479.60-30.91 476.14-30.60L476.14-30.60L475.01-30.50L475.01-30.50Q471.95-30.50 470.17-32.03L470.17-32.03L470.17-32.03Q468.38-33.56 468.38-36.11L468.38-36.11L468.38-36.11Q468.38-37.74 469.46-39.73L469.46-39.73L469.46-39.73Q470.53-41.72 472.16-42.94L472.16-42.94L472.16-42.94Q473.79-44.17 477.21-45.14L477.21-45.14L477.21-45.14Q480.62-46.10 483.79-46.10L483.79-46.10L483.79-46.10Q486.95-46.10 488.68-45.90L488.68-45.90L488.68-45.90Q490.42-45.70 493.43-44.93L493.43-44.93L493.43-44.93Q496.43-44.17 498.42-42.02L498.42-42.02L498.42-42.02Q500.41-39.88 500.57-37.48L500.57-37.48L500.57-37.48Q500.72-35.09 500.72-30.60" fill="#51cacc" stroke="none" stroke-width="none" transform="translate(-304.6700439453125,28.047091674804687)" style="fill: rgb(222, 157, 214);"></path></g><g class="path" style="transform: matrix(1, 0, 0, 1, 0, 0); transform-origin: 232.055px 5.81209px; animation: 1s linear -0.04125s infinite normal forwards running bounce-86fba17e-4de6-4fe8-88f0-59ce0f7a85b3;"><path d="M529.99 0.61L529.99 0.61L529.99 0.61Q531.42-6.53 531.42-19.43L531.42-19.43L531.42-19.43Q531.42-32.33 531.32-34.68L531.32-34.68L531.32-34.68Q531.22-37.03 529.89-38.45L529.89-38.45L529.89-38.45Q528.56-39.88 527.60-40.09L527.60-40.09L527.60-40.09Q526.63-40.29 524.89-40.29L524.89-40.29L524.89-40.29Q523.16-40.29 521.53-38.71L521.53-38.71L521.53-38.71Q519.89-37.13 519.59-35.50L519.59-35.50L519.18-33.86L519.18-33.86Q518.87-30.80 518.87-20.30L518.87-20.30L518.87-20.30Q518.87-9.79 519.33-7.09L519.33-7.09L519.33-7.09Q519.79-4.39 519.79-3.47L519.79-3.47L519.79-3.47Q519.79-2.55 518.98-1.63L518.98-1.63L518.98-1.63Q515.51 2.04 509.18 2.04L509.18 2.04L509.18 2.04Q506.94 2.04 506.94 0.71L506.94 0.71L506.94 0.71Q508.98-11.53 508.98-30.50L508.98-30.50L508.98-30.50Q508.98-37.54 508.67-39.98L508.67-39.98L508.27-43.25L508.27-43.25Q508.16-44.37 507.86-45.70L507.86-45.70L507.86-45.70Q507.86-46.92 511.02-46.92L511.02-46.92L511.02-46.92Q515.71-46.92 517.24-43.45L517.24-43.45L517.24-43.45Q517.34-43.04 517.65-43.04L517.65-43.04L517.65-43.04Q517.96-43.04 519.08-43.86L519.08-43.86L519.08-43.86Q522.44-46.51 528.16-46.51L528.16-46.51L528.16-46.51Q531.42-46.51 534.58-45.29L534.58-45.29L534.58-45.29Q537.74-44.06 538.97-42.02L538.97-42.02L538.97-42.02Q539.07-41.82 539.27-41.82L539.27-41.82L539.27-41.82Q539.48-41.82 539.89-42.23L539.89-42.23L539.89-42.23Q544.17-46.51 551.00-46.51L551.00-46.51L551.00-46.51Q560.08-46.51 563.45-39.98L563.45-39.98L563.45-39.98Q564.67-37.43 564.67-33.56L564.67-33.56L564.67-33.56Q564.67-29.68 564.06-22.54L564.06-22.54L564.06-22.54Q563.45-15.40 563.45-11.63L563.45-11.63L563.45-11.63Q563.45-7.85 564.21-4.79L564.21-4.79L564.21-4.79Q564.98-1.73 565.74-0.41L565.74-0.41L565.74-0.41Q566.51 0.92 566.51 1.12L566.51 1.12L566.51 1.12Q566.51 2.45 563.65 2.45L563.65 2.45L563.65 2.45Q556.61 2.45 553.86-0.41L553.86-0.41L553.86-0.41Q551.11-3.26 551.11-7.91L551.11-7.91L551.11-7.91Q551.11-12.55 552.99-20.45L552.99-20.45L552.99-20.45Q554.88-28.36 554.88-32.33L554.88-32.33L554.88-32.33Q554.88-40.39 548.35-40.39L548.35-40.39L548.35-40.39Q545.60-40.39 543.97-38.76L543.97-38.76L543.97-38.76Q542.33-37.13 542.03-35.50L542.03-35.50L541.82-33.86L541.82-33.86Q541.42-29.17 541.42-22.54L541.42-22.54L541.42-22.54Q541.42-15.91 541.62-12.19L541.62-12.19L541.62-12.19Q541.82-8.47 542.03-6.38L542.03-6.38L542.03-6.38Q542.23-4.28 542.23-3.88L542.23-3.88L542.23-3.88Q542.23-1.02 538.66 0.51L538.66 0.51L538.66 0.51Q535.09 2.04 531.73 2.04L531.73 2.04L531.73 2.04Q529.99 2.04 529.99 0.61" fill="#51cacc" stroke="none" stroke-width="none" transform="translate(-304.6700439453125,28.047091674804687)" style="fill: rgb(255, 112, 142);"></path></g><g class="path" style="transform: matrix(1, 0, 0, 1, 0, 0); transform-origin: 282.85px 5.66209px; animation: 1s linear 0s infinite normal forwards running bounce-86fba17e-4de6-4fe8-88f0-59ce0f7a85b3;"><path d="M603.94-30.60L603.94-30.60L603.74-17.54L603.74-17.54Q603.74-3.98 606.70-1.22L606.70-1.22L606.70-1.22Q607.10-0.82 607.10-0.31L607.10-0.31L607.10-0.31Q607.10 1.22 600.53 1.22L600.53 1.22L600.53 1.22Q593.95 1.22 593.54-2.65L593.54-2.65L593.54-2.65Q593.44-3.57 593.44-6.43L593.44-6.43L593.84-22.75L593.84-22.75Q593.84-23.46 593.03-23.46L593.03-23.46L593.03-23.46Q588.13-23.46 583.85-20.71L583.85-20.71L583.85-20.71Q579.56-17.95 579.56-13.67L579.56-13.67L579.56-13.67Q579.56-11.42 580.79-9.89L580.79-9.89L580.79-9.89Q582.01-8.36 583.80-8.36L583.80-8.36L583.80-8.36Q585.58-8.36 586.76-9.08L586.76-9.08L586.76-9.08Q587.93-9.79 588.13-9.89L588.13-9.89L588.13-9.89Q589.87-9.69 589.87-6.27L589.87-6.27L589.87-6.27Q589.87-2.86 586.70-0.77L586.70-0.77L586.70-0.77Q583.54 1.33 580.07 1.33L580.07 1.33L580.07 1.33Q576.61 1.33 574.11 0.10L574.11 0.10L574.11 0.10Q571.61-1.12 570.49-2.65L570.49-2.65L570.49-2.65Q569.36-4.18 568.65-6.12L568.65-6.12L568.65-6.12Q567.94-8.47 567.94-10.20L567.94-10.20L567.94-10.20Q567.94-17.34 572.42-21.62L572.42-21.62L572.42-21.62Q576.91-25.91 583.95-27.74L583.95-27.74L583.95-27.74Q593.23-29.58 593.64-31.11L593.64-31.11L593.64-31.11Q593.95-32.23 593.95-34.88L593.95-34.88L593.95-34.88Q593.95-40.29 588.44-40.29L588.44-40.29L588.44-40.29Q586.09-40.29 584.26-38.81L584.26-38.81L584.26-38.81Q582.42-37.33 582.42-35.09L582.42-35.09L583.03-32.64L583.03-32.64Q582.83-30.91 579.36-30.60L579.36-30.60L578.24-30.50L578.24-30.50Q575.18-30.50 573.39-32.03L573.39-32.03L573.39-32.03Q571.61-33.56 571.61-36.11L571.61-36.11L571.61-36.11Q571.61-37.74 572.68-39.73L572.68-39.73L572.68-39.73Q573.75-41.72 575.38-42.94L575.38-42.94L575.38-42.94Q577.01-44.17 580.43-45.14L580.43-45.14L580.43-45.14Q583.85-46.10 587.01-46.10L587.01-46.10L587.01-46.10Q590.17-46.10 591.91-45.90L591.91-45.90L591.91-45.90Q593.64-45.70 596.65-44.93L596.65-44.93L596.65-44.93Q599.66-44.17 601.65-42.02L601.65-42.02L601.65-42.02Q603.64-39.88 603.79-37.48L603.79-37.48L603.79-37.48Q603.94-35.09 603.94-30.60" fill="#51cacc" stroke="none" stroke-width="none" transform="translate(-304.6700439453125,28.047091674804687)" style="fill: rgb(81, 202, 204);"></path></g></g>
</g>
</g>
<style id="bounce-86fba17e-4de6-4fe8-88f0-59ce0f7a85b3" data-anikit="">@keyframes bounce-86fba17e-4de6-4fe8-88f0-59ce0f7a85b3
{
  0% {
    animation-timing-function: cubic-bezier(0.1361,0.2514,0.2175,0.8786);
    transform: translate(0,0px) scaleY(1);
  }
  37% {
    animation-timing-function: cubic-bezier(0.7674,0.1844,0.8382,0.7157);
    transform: translate(0,-39.96px) scaleY(1);
  }
  72% {
    animation-timing-function: cubic-bezier(0.1118,0.2149,0.2172,0.941);
    transform: translate(0,0px) scaleY(1);
  }
  87% {
    animation-timing-function: cubic-bezier(0.7494,0.2259,0.8209,0.6963);
    transform: translate(0,19.900000000000002px) scaleY(0.602);
  }
  100% {
    transform: translate(0,0px) scaleY(1);
  }
}</style></svg>