<svg width="17" height="17" viewBox="0 0 17 17" fill="none" xmlns="http://www.w3.org/2000/svg">
<g clip-path="url(#clip0_2041:1462)">
<path d="M16.2901 6.26431C16.1832 5.93359 15.8899 5.6987 15.5428 5.66742L10.8288 5.23938L8.9647 0.876344C8.82726 0.55659 8.51423 0.349609 8.16644 0.349609C7.81865 0.349609 7.50562 0.55659 7.36818 0.877092L5.50411 5.23938L0.78929 5.66742C0.442869 5.69945 0.15028 5.93359 0.0427398 6.26431C-0.0648003 6.59503 0.0345154 6.95778 0.296574 7.18644L3.85985 10.3115L2.80912 14.9399C2.73224 15.2802 2.86433 15.632 3.1467 15.8361C3.29848 15.9458 3.47605 16.0016 3.65511 16.0016C3.80951 16.0016 3.96266 15.96 4.1001 15.8777L8.16644 13.4474L12.2313 15.8777C12.5287 16.0567 12.9037 16.0404 13.1854 15.8361C13.4679 15.6314 13.5999 15.2795 13.523 14.9399L12.4723 10.3115L16.0356 7.18706C16.2976 6.95778 16.3977 6.59566 16.2901 6.26431Z" fill="#FFC107"/>
</g>
<defs>
<clipPath id="clip0_2041:1462">
<rect width="16.3327" height="16.3327" fill="white"/>
</clipPath>
</defs>
</svg>
